<svg width="25" height="25" viewBox="0 0 25 25" fill="none" xmlns="http://www.w3.org/2000/svg">
<path d="M9.58601 3.46672C9.23167 2.58087 8.37371 2 7.41962 2H4.21047C2.98966 2 2 2.98942 2 4.21023C2 14.5871 10.4124 22.9994 20.7892 22.9994C22.01 22.9994 22.9995 22.0097 22.9995 20.7889L23 17.5792C23 16.6251 22.4193 15.7673 21.5334 15.413L18.4577 14.1831C17.6619 13.8648 16.756 14.0081 16.0976 14.5567L15.3038 15.2188C14.3767 15.9913 13.0126 15.9299 12.1593 15.0766L9.92405 12.8393C9.07073 11.986 9.00768 10.623 9.78024 9.69593L10.4422 8.90217C10.9908 8.24379 11.1353 7.33755 10.817 6.54182L9.58601 3.46672Z" stroke="white" stroke-width="2.33327" stroke-linecap="round" stroke-linejoin="round"/>
</svg>
