<svg width="26" height="21" viewBox="0 0 26 21" fill="none" xmlns="http://www.w3.org/2000/svg">
<path d="M3.22222 3.22222L10.6871 8.85944L10.6896 8.8615C11.5185 9.46935 11.9332 9.77345 12.3874 9.89093C12.7888 9.99477 13.2108 9.99477 13.6123 9.89093C14.0669 9.77335 14.4828 9.46835 15.3132 8.85944C15.3132 8.85944 20.1012 5.18504 22.7778 3.22222M2 15.2002V5.91135C2 4.54233 2 3.85731 2.26643 3.33442C2.50079 2.87447 2.87447 2.50079 3.33442 2.26643C3.85731 2 4.54233 2 5.91135 2H20.0891C21.4581 2 22.1417 2 22.6646 2.26643C23.1245 2.50079 23.4995 2.87447 23.7338 3.33442C24 3.8568 24 4.54099 24 5.90733V15.2044C24 16.5707 24 17.2539 23.7338 17.7763C23.4995 18.2363 23.1245 18.6106 22.6646 18.8449C22.1422 19.1111 21.459 19.1111 20.0927 19.1111H5.90733C4.54099 19.1111 3.8568 19.1111 3.33442 18.8449C2.87447 18.6106 2.50079 18.2363 2.26643 17.7763C2 17.2534 2 16.5693 2 15.2002Z" stroke="white" stroke-width="2.44444" stroke-linecap="round" stroke-linejoin="round"/>
</svg>
