<svg width="33" height="34" viewBox="0 0 33 34" fill="none" xmlns="http://www.w3.org/2000/svg">
<path d="M31 26.1832V16.1275C31 15.1591 30.9992 14.6746 30.8814 14.2239C30.7771 13.8245 30.6057 13.4466 30.3739 13.1051C30.1123 12.7197 29.7486 12.4001 29.0197 11.7623L20.3197 4.14983C18.9665 2.96575 18.2899 2.37401 17.5284 2.14882C16.8574 1.95039 16.1422 1.95039 15.4713 2.14882C14.7104 2.37384 14.0347 2.96502 12.6835 4.14731L3.98065 11.7623C3.25179 12.4001 2.8882 12.7197 2.62659 13.1051C2.39475 13.4466 2.22212 13.8245 2.11776 14.2239C2 14.6746 2 15.1591 2 16.1275V26.1832C2 27.8722 2 28.7164 2.27594 29.3826C2.64385 30.2708 3.34908 30.9774 4.2373 31.3453C4.90347 31.6212 5.74799 31.6212 7.43703 31.6212C9.12607 31.6212 9.97152 31.6212 10.6377 31.3453C11.5259 30.9774 12.231 30.271 12.5989 29.3828C12.8748 28.7166 12.875 27.8721 12.875 26.183V24.3705C12.875 22.3685 14.498 20.7455 16.5 20.7455C18.502 20.7455 20.125 22.3685 20.125 24.3705V26.183C20.125 27.8721 20.125 28.7166 20.4009 29.3828C20.7689 30.271 21.4741 30.9774 22.3623 31.3453C23.0285 31.6212 23.873 31.6212 25.562 31.6212C27.2511 31.6212 28.0965 31.6212 28.7627 31.3453C29.6509 30.9774 30.356 30.2708 30.7239 29.3826C30.9998 28.7164 31 27.8722 31 26.1832Z" stroke="white" stroke-width="3.63" stroke-linecap="round" stroke-linejoin="round"/>
</svg>
