<svg width="31" height="32" viewBox="0 0 31 32" fill="none" xmlns="http://www.w3.org/2000/svg">
<path d="M30 25.1832V15.1275C30 14.1591 29.9992 13.6746 29.8814 13.2239C29.7771 12.8245 29.6057 12.4466 29.3739 12.1051C29.1123 11.7197 28.7486 11.4001 28.0197 10.7623L19.3197 3.14983C17.9665 1.96575 17.2899 1.37401 16.5284 1.14882C15.8574 0.950394 15.1422 0.950394 14.4713 1.14882C13.7104 1.37384 13.0347 1.96502 11.6835 3.14731L2.98065 10.7623C2.25179 11.4001 1.8882 11.7197 1.62659 12.1051C1.39475 12.4466 1.22212 12.8245 1.11776 13.2239C1 13.6746 1 14.1591 1 15.1275V25.1832C1 26.8722 1 27.7164 1.27594 28.3826C1.64385 29.2708 2.34908 29.9774 3.2373 30.3453C3.90347 30.6212 4.74799 30.6212 6.43703 30.6212C8.12607 30.6212 8.97153 30.6212 9.6377 30.3453C10.5259 29.9774 11.231 29.271 11.5989 28.3828C11.8748 27.7166 11.875 26.8721 11.875 25.183V23.3705C11.875 21.3685 13.498 19.7455 15.5 19.7455C17.502 19.7455 19.125 21.3685 19.125 23.3705V25.183C19.125 26.8721 19.125 27.7166 19.4009 28.3828C19.7689 29.271 20.4741 29.9774 21.3623 30.3453C22.0285 30.6212 22.873 30.6212 24.562 30.6212C26.2511 30.6212 27.0965 30.6212 27.7627 30.3453C28.6509 29.9774 29.356 29.2708 29.7239 28.3826C29.9998 27.7164 30 26.8722 30 25.1832Z" fill="white" stroke="white" stroke-linecap="round" stroke-linejoin="round"/>
</svg>
