<?xml version="1.0" standalone="no"?>
<!DOCTYPE svg PUBLIC "-//W3C//DTD SVG 20010904//EN"
 "http://www.w3.org/TR/2001/REC-SVG-20010904/DTD/svg10.dtd">
<svg version="1.0" xmlns="http://www.w3.org/2000/svg"
 width="471.000000pt" height="471.000000pt" viewBox="0 0 471.000000 471.000000"
 preserveAspectRatio="xMidYMid meet">
<metadata>
Created by potrace 1.14, written by Peter Selinger 2001-2017
</metadata>
<g transform="translate(0.000000,471.000000) scale(0.100000,-0.100000)"
fill="#000000" stroke="none">
<path d="M2286 4463 c-3 -3 -22 -7 -43 -8 -56 -4 -145 -17 -218 -31 -16 -3
-43 -7 -58 -10 -16 -2 -33 -7 -38 -10 -6 -3 -24 -8 -41 -11 -66 -10 -318 -100
-330 -117 -4 -6 -8 -8 -8 -3 0 23 -275 -137 -416 -243 -102 -77 -298 -265
-350 -335 -16 -22 -32 -42 -35 -45 -15 -12 -79 -101 -79 -110 0 -6 -4 -10 -9
-10 -5 0 -17 -16 -27 -36 -11 -20 -23 -44 -29 -55 -5 -10 -13 -19 -17 -19 -5
0 -8 -5 -8 -10 0 -6 -12 -29 -27 -53 -14 -23 -26 -43 -25 -44 1 -2 -15 -37
-34 -78 -37 -80 -92 -225 -100 -263 -3 -13 -11 -42 -18 -65 -12 -36 -27 -99
-41 -172 -4 -21 -11 -67 -22 -145 -13 -96 -7 -520 8 -520 3 0 5 -10 4 -22 -1
-13 2 -40 7 -61 4 -20 11 -54 14 -75 3 -20 8 -40 11 -45 2 -4 6 -19 9 -32 2
-14 16 -62 30 -108 15 -45 26 -84 26 -87 0 -3 5 -14 11 -25 6 -11 12 -22 13
-25 9 -38 104 -232 155 -317 44 -73 127 -190 186 -264 87 -109 306 -306 438
-394 33 -22 62 -42 65 -45 6 -6 16 -12 130 -73 72 -38 125 -62 275 -122 24
-10 17 -8 90 -29 33 -10 67 -20 75 -23 8 -3 20 -7 25 -8 6 -1 12 -3 15 -5 3
-1 14 -4 25 -6 27 -4 74 -13 105 -20 39 -9 144 -22 210 -27 19 -2 40 -6 46
-10 15 -9 286 -6 299 3 6 4 17 8 25 8 26 1 114 11 136 16 12 2 39 7 60 10 22
4 47 9 56 12 9 3 25 6 35 8 14 3 76 20 113 31 3 1 19 5 35 9 17 4 37 10 45 13
8 4 17 7 20 8 3 1 18 7 33 13 16 7 31 12 34 12 27 0 347 163 384 196 8 8 19
14 23 14 20 0 225 169 321 265 119 119 134 136 207 235 27 36 52 70 56 75 38
51 172 289 177 315 1 3 9 23 19 45 32 72 75 199 70 207 -3 4 0 8 7 8 7 0 9 3
6 7 -4 3 -3 11 2 17 11 14 48 177 65 291 14 89 15 481 2 550 -3 17 -7 44 -9
60 -28 205 -130 506 -229 678 -15 26 -28 50 -28 53 0 8 -55 89 -62 92 -5 2 -8
8 -8 14 0 24 -155 213 -265 324 -116 116 -273 243 -372 300 -26 16 -50 31 -53
34 -10 13 -208 108 -285 138 -142 54 -116 45 -250 82 -60 17 -123 32 -140 35
-16 2 -43 6 -60 9 -16 3 -50 8 -75 11 -65 8 -73 10 -89 19 -10 6 -12 5 -7 -2
4 -7 3 -12 -3 -12 -5 0 -12 4 -15 8 -5 9 -271 13 -280 5z"/>
<path d="M3450 4393 c-19 -8 -30 -23 -30 -46 0 -19 22 -47 37 -47 5 0 25 -11
46 -25 20 -14 37 -23 37 -20 0 3 6 1 13 -4 6 -6 59 -42 117 -80 101 -68 125
-86 198 -152 17 -16 32 -27 32 -25 0 6 140 -136 198 -199 23 -26 42 -49 42
-51 0 -4 10 -15 55 -65 8 -9 15 -21 15 -27 0 -5 4 -12 8 -14 9 -3 82 -104 82
-112 0 -5 62 -108 70 -116 7 -7 43 -83 97 -205 25 -55 50 -103 57 -107 21 -14
46 -8 61 16 17 26 16 29 -53 186 -9 19 -17 40 -18 47 -1 7 -11 25 -22 40 -26
38 -67 116 -64 126 1 4 -2 7 -6 7 -5 0 -19 20 -32 45 -12 24 -31 53 -41 64
-11 11 -19 25 -19 30 0 6 -8 15 -17 20 -10 6 -14 11 -10 11 5 0 2 6 -5 14 -7
8 -31 38 -53 67 -48 62 -306 324 -354 359 -19 14 -46 35 -60 47 -40 35 -45 38
-61 46 -21 9 -54 31 -60 38 -9 11 -119 79 -128 79 -4 0 -18 9 -30 20 -12 12
-22 18 -22 14 0 -3 -11 1 -25 10 -26 17 -31 18 -55 9z"/>
<path d="M638 3804 c-7 -8 -23 -25 -35 -36 -13 -12 -23 -27 -23 -34 0 -6 -7
-14 -15 -18 -8 -3 -15 -12 -15 -20 0 -8 -4 -16 -9 -18 -10 -4 -121 -174 -121
-187 0 -5 -7 -14 -15 -21 -9 -7 -13 -15 -11 -18 3 -3 -3 -17 -14 -32 -24 -34
-84 -162 -81 -174 1 -4 -3 -13 -8 -20 -12 -14 -73 -174 -75 -196 -1 -9 -5 -20
-8 -26 -4 -6 -10 -24 -13 -40 -9 -46 -10 -48 -16 -59 -3 -5 -6 -23 -7 -39 -1
-16 -6 -34 -12 -41 -5 -6 -8 -14 -5 -17 3 -3 -1 -36 -9 -74 -27 -129 -39 -303
-33 -479 6 -180 38 -403 60 -417 20 -13 54 -9 67 7 11 13 11 29 1 86 -7 38
-15 89 -17 112 -2 23 -7 50 -10 60 -3 10 -7 91 -9 180 -3 177 12 337 46 493
12 55 22 104 23 109 1 6 5 16 9 23 5 6 6 16 2 21 -3 5 -1 12 5 16 6 4 8 11 5
16 -4 5 -1 9 5 9 6 0 9 4 6 9 -6 9 67 216 83 235 5 6 10 16 11 21 2 15 81 179
89 185 13 10 41 60 34 60 -5 0 -3 4 2 8 6 4 36 48 69 97 32 50 65 97 72 105 7
8 22 25 34 38 22 25 26 62 8 80 -17 17 -55 15 -70 -4z"/>
<path d="M213 1726 c-6 -8 -10 -29 -8 -47 6 -41 34 -129 43 -130 73 -13 92 7
72 75 -30 101 -36 111 -66 113 -16 2 -34 -3 -41 -11z"/>
</g>
</svg>
