<svg width="33" height="34" viewBox="0 0 33 34" fill="none" xmlns="http://www.w3.org/2000/svg">
<path d="M2 2H2.44236C3.22338 2 3.61457 2 3.93312 2.14091C4.21398 2.26514 4.4541 2.46516 4.62726 2.71879C4.82334 3.00599 4.89414 3.3895 5.03546 4.15501L8.59398 23.4303L25.774 23.4302C26.5211 23.4302 26.8958 23.4302 27.2053 23.2982C27.4787 23.1816 27.7144 22.9927 27.8895 22.7526C28.0875 22.4811 28.1714 22.1175 28.339 21.3912L28.3402 21.386L30.9271 10.1764L30.9276 10.174C31.1819 9.07223 31.3093 8.51999 31.1694 8.08682C31.0466 7.70674 30.7882 7.3845 30.4455 7.17939C30.0545 6.94544 29.4897 6.94544 28.3571 6.94544H6.1212M26.7272 31.6726C25.8168 31.6726 25.0787 30.9346 25.0787 30.0241C25.0787 29.1137 25.8168 28.3757 26.7272 28.3757C27.6376 28.3757 28.3757 29.1137 28.3757 30.0241C28.3757 30.9346 27.6376 31.6726 26.7272 31.6726ZM10.2424 31.6726C9.33196 31.6726 8.59391 30.9346 8.59391 30.0241C8.59391 29.1137 9.33196 28.3757 10.2424 28.3757C11.1528 28.3757 11.8909 29.1137 11.8909 30.0241C11.8909 30.9346 11.1528 31.6726 10.2424 31.6726Z" stroke="white" stroke-width="3.29696" stroke-linecap="round" stroke-linejoin="round"/>
</svg>
