<svg width="30" height="30" viewBox="0 0 30 30" fill="none" xmlns="http://www.w3.org/2000/svg">
<path d="M4.4729 4.42615H4.79418C5.36142 4.42615 5.64554 4.42615 5.87689 4.52849C6.08087 4.61872 6.25527 4.76399 6.38103 4.9482C6.52344 5.15678 6.57486 5.43532 6.6775 5.99129L9.26199 19.9906L21.7396 19.9905C22.2822 19.9905 22.5543 19.9905 22.779 19.8947C22.9776 19.81 23.1488 19.6728 23.276 19.4984C23.4198 19.3012 23.4807 19.0371 23.6024 18.5096L23.6033 18.5059L25.4821 10.3645L25.4825 10.3628C25.6672 9.56258 25.7597 9.1615 25.6581 8.84689C25.5689 8.57085 25.3813 8.33681 25.1323 8.18784C24.8484 8.01793 24.4382 8.01793 23.6156 8.01793H7.46605M22.4318 25.9768C21.7706 25.9768 21.2345 25.4408 21.2345 24.7796C21.2345 24.1183 21.7706 23.5823 22.4318 23.5823C23.093 23.5823 23.6291 24.1183 23.6291 24.7796C23.6291 25.4408 23.093 25.9768 22.4318 25.9768ZM10.4592 25.9768C9.79797 25.9768 9.26194 25.4408 9.26194 24.7796C9.26194 24.1183 9.79797 23.5823 10.4592 23.5823C11.1204 23.5823 11.6565 24.1183 11.6565 24.7796C11.6565 25.4408 11.1204 25.9768 10.4592 25.9768Z" stroke="white" stroke-width="2.39452" stroke-linecap="round" stroke-linejoin="round"/>
</svg>
